<svg width="21" height="21" viewBox="0 0 21 21" fill="none" xmlns="http://www.w3.org/2000/svg">
<g clip-path="url(#clip0)">
<path fill-rule="evenodd" clip-rule="evenodd" d="M0 10.5768C0 10.5549 0 10.5329 0 10.511C0 4.7069 4.70444 0 10.5055 0C16.3065 0 21.011 4.7069 21.011 10.511C21.011 15.2837 17.8089 19.2226 13.4883 20.594C10.3629 21.5815 8.78381 20.1771 4.96762 19.6834C3.0047 19.4201 1.20627 20.1881 0 21V10.5768Z" fill="#FFB800"/>
<path fill-rule="evenodd" clip-rule="evenodd" d="M20.2324 6.5393L15.4951 3.77441L10.2533 12.7164L5.97656 10.3685L7.96142 15.7008L8.01625 17.0283L13.7954 20.4735C17.9625 19.0142 21.0001 15.1522 21.0001 10.5001C21.0001 9.1067 20.7259 7.76815 20.2324 6.5393Z" fill="#969696" fill-opacity="0.3" style="mix-blend-mode:multiply"/>
<path fill-rule="evenodd" clip-rule="evenodd" d="M3.77164 10.5329C4.4296 9.87463 5.50428 9.87463 6.16224 10.5329L8.35545 12.7273L13.1696 4.38874C13.6301 3.58779 14.6719 3.30253 15.4834 3.77432C16.2839 4.23513 16.569 5.27745 16.0975 6.08936L10.3184 16.0956C10.2416 16.3151 10.11 16.5235 9.9236 16.7101C9.40819 17.2257 8.6296 17.3354 8.00454 17.0392C7.94971 17.0173 7.90584 16.9953 7.85101 16.9624C7.67556 16.8637 7.52203 16.721 7.39044 16.5784L3.74971 12.9358C3.11368 12.2665 3.11368 11.1912 3.77164 10.5329Z" fill="white"/>
</g>
<defs>
<clipPath id="clip0">
<rect width="21" height="21" fill="white"/>
</clipPath>
</defs>
</svg>
