<svg width="21" height="21" viewBox="0 0 21 21" fill="none" xmlns="http://www.w3.org/2000/svg">
<g clip-path="url(#clip0)">
<path fill-rule="evenodd" clip-rule="evenodd" d="M0 10.5768C0 10.5549 0 10.5329 0 10.511C0 4.7069 4.70444 0 10.5055 0C16.3065 0 21.011 4.7069 21.011 10.511C21.011 15.2837 17.8089 19.2226 13.4883 20.594C10.3629 21.5815 8.78381 20.1771 4.96762 19.6834C3.0047 19.4201 1.20627 20.1881 0 21V10.5768Z" fill="#23D2E2"/>
<path fill-rule="evenodd" clip-rule="evenodd" d="M20.2324 6.53918L15.495 3.77429L10.2533 12.7163L5.9765 10.3683L7.96136 15.7006L8.01619 17.0282L13.7953 20.4734C17.9624 19.0141 21 15.152 21 10.5C21 9.10658 20.7259 7.76802 20.2324 6.53918Z" fill="#188E99"/>
<path fill-rule="evenodd" clip-rule="evenodd" d="M3.77234 10.5329C4.43031 9.87463 5.50498 9.87463 6.16294 10.5329L8.35615 12.7273L13.1703 4.38874C13.6308 3.58779 14.6726 3.30253 15.4841 3.77432C16.2846 4.23513 16.5697 5.27745 16.0982 6.08936L10.3191 16.0956C10.2423 16.3151 10.1107 16.5235 9.9243 16.7101C9.4089 17.2257 8.63031 17.3354 8.00524 17.0392C7.95041 17.0173 7.90655 16.9953 7.85171 16.9624C7.67626 16.8637 7.52273 16.721 7.39114 16.5784L3.75041 12.9358C3.11438 12.2665 3.11438 11.1912 3.77234 10.5329Z" fill="white"/>
<path fill-rule="evenodd" clip-rule="evenodd" d="M3.77234 10.5329C4.43031 9.87463 5.50498 9.87463 6.16294 10.5329L8.35615 12.7273L13.1703 4.38874C13.6308 3.58779 14.6726 3.30253 15.4841 3.77432C16.2846 4.23513 16.5697 5.27745 16.0982 6.08936L10.3191 16.0956C10.2423 16.3151 10.1107 16.5235 9.9243 16.7101C9.4089 17.2257 8.63031 17.3354 8.00524 17.0392C7.95041 17.0173 7.90655 16.9953 7.85171 16.9624C7.67626 16.8637 7.52273 16.721 7.39114 16.5784L3.75041 12.9358C3.11438 12.2665 3.11438 11.1912 3.77234 10.5329Z" fill="white"/>
</g>
<defs>
<clipPath id="clip0">
<rect width="21" height="21" fill="white"/>
</clipPath>
</defs>
</svg>
