<svg width="35" height="29" viewBox="0 0 35 29" fill="none" xmlns="http://www.w3.org/2000/svg">
<g clip-path="url(#clip0)">
<path d="M35 11.8901L28.5085 1.50811L17.1709 0.0581055L6.46154 1.50811L0 11.7451L17.4701 28.8261L35 11.8901Z" fill="#337DFF"/>
<path d="M0 11.7448L0.0299145 11.7738L11.2479 12.8468L6.43162 1.50781L0 11.7448Z" fill="#4D94FF"/>
<path d="M17.3503 4.118L28.5384 1.479L23.6922 12.76L17.3503 4.118Z" fill="#81D1FF"/>
<path d="M17.3504 4.118L6.43164 1.479L11.1881 12.847L17.3504 4.118Z" fill="#64C6FF"/>
<path d="M35.3272 11.7584L24.0195 12.5994L28.8657 1.31836L35.3272 11.7584Z" fill="#A1DCFF"/>
<path d="M0.0297852 11.7739L17.5597 28.9999L11.1879 12.8469L0.0297852 11.7739Z" fill="#275EFF"/>
<path d="M35.0001 11.9189L17.5898 28.8549L23.6625 12.7599L35.0001 11.9189Z" fill="#ABC9FF"/>
<path d="M6.43164 1.508L17.3504 4.147L28.5684 1.508L17.141 0L6.43164 1.508Z" fill="#BFE7FF"/>
<path d="M11.188 12.8472L17.3504 4.11816L23.6923 12.7602L11.188 12.8472Z" fill="#5C95FF"/>
</g>
<defs>
<clipPath id="clip0">
<rect width="35" height="29" fill="white"/>
</clipPath>
</defs>
</svg>
